<svg xmlns="http://www.w3.org/2000/svg" width="300" height="150" viewBox="0 0 300 150"><defs><style>.a1204c8f-c5fe-4838-aaec-7f01606c90ce{fill:#c03320;}.fd2224d4-1400-4e05-acf0-13781ea09bd1{fill:#f5f6fc;}.b833ad51-006a-45b5-bd4b-d9bb7d12ca0a{fill:none;}</style></defs><g id="a4f5f9b2-db2e-4566-85aa-7c3a8a2112b5" data-name="icon"><circle class="a1204c8f-c5fe-4838-aaec-7f01606c90ce" cx="8.32" cy="6.51" r="5.51"/><path class="a1204c8f-c5fe-4838-aaec-7f01606c90ce" d="M8.18,13.17A7.67,7.67,0,0,0,.82,20.92v8.27a1.12,1.12,0,0,0,1.12,1.12H14.69a1.13,1.13,0,0,0,1.13-1.12V20.67A7.51,7.51,0,0,0,8.18,13.17Z"/><path class="a1204c8f-c5fe-4838-aaec-7f01606c90ce" d="M46.88,6.47A14.43,14.43,0,0,0,65.93,27.62a1,1,0,0,1,1.25.12l9.64,9.64a1,1,0,0,0,1.39,0l1.92-1.92a1,1,0,0,0,0-1.39l-9.64-9.64a1,1,0,0,1-.12-1.25A14.43,14.43,0,0,0,46.88,6.47Zm17.94,15.6a9.37,9.37,0,1,1,0-13.25A9.37,9.37,0,0,1,64.82,22.07Z"/><path class="fd2224d4-1400-4e05-acf0-13781ea09bd1" d="M30.46,1c-.22,0-.45,0-.67,0s-.45,0-.67,0c-6.44.43-10.21,7.53-7.32,13.3l8,16,8-16C40.67,8.56,36.9,1.46,30.46,1Zm-.67,15A6.09,6.09,0,1,1,35.88,10,6.09,6.09,0,0,1,29.79,16.06Z"/><g id="b4d86331-7c5b-4d6d-9887-483a7188bbea" data-name="aa7ebafb-fae1-41ce-b981-36521b476a45"><path class="fd2224d4-1400-4e05-acf0-13781ea09bd1" d="M57.57,46.36,53.69,64.85c-.27,1.34-1.07,1.61-2.15,1.07l-6-4.42-2.94,2.81a1.36,1.36,0,0,1-1.21.54l.4-6,11.12-10c.54-.4-.13-.67-.8-.27L38.41,57.08,32.65,55.2c-1.34-.4-1.34-1.34.27-1.87l23-8.85C57,44.08,58,44.75,57.57,46.36Z"/></g><g id="f2f7b395-a3b2-47bb-a113-e8c49c5f5ed1" data-name="b3df9f34-a322-4ab9-90fe-0554c213060f"><path class="fd2224d4-1400-4e05-acf0-13781ea09bd1" d="M84,46.46A12.39,12.39,0,0,0,64.41,61.33l-1.74,6.43L69.23,66a14.8,14.8,0,0,0,5.9,1.61h0A12.27,12.27,0,0,0,87.59,55.57,11.66,11.66,0,0,0,84,46.46Zm-8.71,19A10.21,10.21,0,0,1,70,64l-.41-.27-3.88,1.07,1.07-3.75-.27-.4A10.23,10.23,0,0,1,69.9,46.59h0A10.33,10.33,0,0,1,82.76,62.53,11,11,0,0,1,75.26,65.48Zm5.63-7.77-2.15-1.07c-.26-.14-.53-.14-.67.13A9,9,0,0,1,77.14,58a.58.58,0,0,1-.67.13,8.45,8.45,0,0,1-4.16-3.62c-.26-.53.27-.53.94-1.74a.39.39,0,0,0,0-.53,18.84,18.84,0,0,0-.94-2.28c-.26-.54-.53-.54-.67-.54h-.53a1,1,0,0,0-.81.4,3.75,3.75,0,0,0-1.07,2.55,6.85,6.85,0,0,0,1.21,3.22,14.41,14.41,0,0,0,5.22,4.68,6,6,0,0,0,3.75.81,3.07,3.07,0,0,0,2.15-1.48,1.8,1.8,0,0,0,.13-1.47C81.42,58,81.16,58,80.89,57.71Z"/></g><g id="aa6e087a-a71a-4e31-a42f-ab433b68791f" data-name="fadc8108-587e-4dbc-87ff-2aae5d8b4dc7"><path class="fd2224d4-1400-4e05-acf0-13781ea09bd1" d="M24.13,50.05v.67a15,15,0,0,1-15,15H9A15.21,15.21,0,0,1,.82,63.31H2.16A10.62,10.62,0,0,0,8.73,61a5.21,5.21,0,0,1-5-3.62c.27,0,.67.13,1.07.13s.94-.13,1.34-.13A5.44,5.44,0,0,1,1.9,52.19h0a5.07,5.07,0,0,0,2.41.67A5.34,5.34,0,0,1,1.9,48.44a6,6,0,0,1,.67-2.68,14.61,14.61,0,0,0,10.85,5.5,3.82,3.82,0,0,1-.14-1.21,5.27,5.27,0,0,1,5.31-5.23h.05a6,6,0,0,1,3.89,1.61,10,10,0,0,0,3.35-1.34A5.58,5.58,0,0,1,23.6,48a12.15,12.15,0,0,0,3.08-.8,16.57,16.57,0,0,1-2.55,2.81Z"/></g><path class="fd2224d4-1400-4e05-acf0-13781ea09bd1" d="M105.61,48.71a6.7,6.7,0,1,0,6.7,6.7A6.7,6.7,0,0,0,105.61,48.71Zm0,11a4.29,4.29,0,1,1,4.29-4.29h0A4.42,4.42,0,0,1,105.61,59.7Z"/><circle class="fd2224d4-1400-4e05-acf0-13781ea09bd1" cx="112.58" cy="48.58" r="1.47"/><path class="fd2224d4-1400-4e05-acf0-13781ea09bd1" d="M116.46,44.56A7.2,7.2,0,0,0,111,42.41H100.25a7.29,7.29,0,0,0-7.64,6.7V60.63a6.92,6.92,0,0,0,2.28,5.5,7.29,7.29,0,0,0,5.36,2H111a8.25,8.25,0,0,0,5.49-2,7.16,7.16,0,0,0,2.14-5.5V49.92A7.59,7.59,0,0,0,116.46,44.56Zm-.13,16.21a5.31,5.31,0,0,1-1.48,3.75A5.13,5.13,0,0,1,111,65.86H100.25a4.87,4.87,0,0,1-3.75-1.34,5.14,5.14,0,0,1-1.34-3.89V49.92a4.89,4.89,0,0,1,1.34-3.76,5,5,0,0,1,3.75-1.33H111a4.86,4.86,0,0,1,3.75,1.33,5.42,5.42,0,0,1,1.61,3.89Z"/><rect class="b833ad51-006a-45b5-bd4b-d9bb7d12ca0a" width="300" height="150"/><path class="fd2224d4-1400-4e05-acf0-13781ea09bd1" d="M101.07,1a15.65,15.65,0,1,0,15.65,15.65A15.65,15.65,0,0,0,101.07,1ZM97.35,27.18a1.94,1.94,0,0,1-1.4.58,2,2,0,0,1-1.4-3.38l8-8L95.11,8.92a2,2,0,1,1,2.8-2.8l10.25,10.25Z"/></g></svg>