<svg xmlns="http://www.w3.org/2000/svg" width="130" height="65" viewBox="0 0 130 65"><defs><style>.b14152cb-fc84-43ba-84b4-9bd73bc1c187{fill:#c03320;}.fc522378-44d7-44e4-a1a7-fef6e11ff3ed{fill:none;}</style></defs><g id="a0ee91a9-df24-47c9-8f0b-d983adadfb4d" data-name="logo"><polygon class="b14152cb-fc84-43ba-84b4-9bd73bc1c187" points="14.92 57.19 17.3 59.59 19.68 57.22 17.27 54.81 14.92 57.19"/><polygon class="b14152cb-fc84-43ba-84b4-9bd73bc1c187" points="41.02 57.66 43.17 59.9 45.41 57.66 43.2 55.45 41.02 57.66"/><polygon class="b14152cb-fc84-43ba-84b4-9bd73bc1c187" points="46.31 57.63 48.46 59.87 50.7 57.63 48.49 55.42 46.31 57.63"/><path class="b14152cb-fc84-43ba-84b4-9bd73bc1c187" d="M49,51.13a4.7,4.7,0,0,0,1.14-1.59,5.51,5.51,0,0,0,.43-2.29,8.77,8.77,0,0,0-.07-1.06c0-.4-.1-.83-.16-1.26s-.14-.87-.22-1.3-.16-.82-.23-1.18-.13-.65-.19-.89a4.29,4.29,0,0,0-.11-.44l-2.47.76c0,.13.08.32.14.58s.11.55.18.89.13.68.19,1,.12.74.17,1.09.09.69.13,1,0,.56,0,.76a2.85,2.85,0,0,1-.29,1.39,2.1,2.1,0,0,1-.66.74,1.88,1.88,0,0,1-.76.31,4.31,4.31,0,0,1-.59.07H40.49a10.93,10.93,0,0,1-2-.16,1.61,1.61,0,0,1-1-.56,2.12,2.12,0,0,1-.4-1.15c0-.5-.08-1.15-.08-2V32.65H34.47V45.94c0,.72,0,1.37.07,2a7.36,7.36,0,0,0,.29,1.6,4.22,4.22,0,0,0,.61,1.24,3.27,3.27,0,0,0,1.05.89,6.2,6.2,0,0,0,1.61.54,12.13,12.13,0,0,0,1.81.18v0h5.72a5.14,5.14,0,0,0,1.76-.31A4.44,4.44,0,0,0,49,51.13Z"/><path class="b14152cb-fc84-43ba-84b4-9bd73bc1c187" d="M62,40.78a5.45,5.45,0,0,0-5.68,1.28,8.52,8.52,0,0,0-.57.73,5.94,5.94,0,0,0-.53,1,7.7,7.7,0,0,0-.56,3,6.06,6.06,0,0,0,.51,2.62,5,5,0,0,0,1.32,1.73,5.18,5.18,0,0,0,1.81,1,7.05,7.05,0,0,0,2,.29h2.54a6.23,6.23,0,0,1-.34,2.23,3.32,3.32,0,0,1-1.06,1.48,5.45,5.45,0,0,1-2.25,1,16.54,16.54,0,0,1-3.51.32V60A17.81,17.81,0,0,0,60,59.53a8.06,8.06,0,0,0,3-1.42,5.62,5.62,0,0,0,1.77-2.37,8.8,8.8,0,0,0,.58-3.37V47.14q0-3.7-1.87-5.45A4.41,4.41,0,0,0,62,40.78Zm.8,9H60.25l-.35,0-.48-.06a3.68,3.68,0,0,1-.54-.16,3.4,3.4,0,0,1-.54-.27,2.7,2.7,0,0,1-1.08-2.47A4.34,4.34,0,0,1,58,44.05a2.58,2.58,0,0,1,2.13-1l.43,0a2.2,2.2,0,0,1,1.14.49,2.17,2.17,0,0,1,.53.69,4.62,4.62,0,0,1,.39,1.16,8.18,8.18,0,0,1,.15,1.7Z"/><path class="b14152cb-fc84-43ba-84b4-9bd73bc1c187" d="M74.55,51.65a9,9,0,0,1-.33,2.59,4.28,4.28,0,0,1-1,1.8,4,4,0,0,1-1.73,1,7.82,7.82,0,0,1-2.46.34H67.11V60H69a10.09,10.09,0,0,0,3.53-.57,6.62,6.62,0,0,0,2.55-1.65,7.09,7.09,0,0,0,1.54-2.63,11.34,11.34,0,0,0,.52-3.53V43H74.55Z"/><path class="b14152cb-fc84-43ba-84b4-9bd73bc1c187" d="M91.91,46.54a9,9,0,0,0-.62-1.09l-1.55-2.33-1.16-1.74-.84-1.27-.61-.93-.46-.69c-.12-.2-.25-.39-.37-.57l-2.21,1.43,5,7.56A4.51,4.51,0,0,1,89.67,48a2.43,2.43,0,0,1,.14.66.94.94,0,0,1,0,.3,1.26,1.26,0,0,1-.66.52,5.44,5.44,0,0,1-1.32.35,9.42,9.42,0,0,1-1.13.11h-.58c-.45,0-.91,0-1.36-.06a9.85,9.85,0,0,1-1.49-.25A4.56,4.56,0,0,1,82,49.18l-1.14-.65-1.3,2.28,1.14.64a5.42,5.42,0,0,0,1.14.52,9.12,9.12,0,0,0,1.32.35,12.43,12.43,0,0,0,1.4.19c.48,0,1,.06,1.42.06s.76,0,1.12,0,.7-.06,1-.11q3.13-.45,4-2.4a2.49,2.49,0,0,0,.27-.89c0-.22,0-.35,0-.38a4.19,4.19,0,0,0-.13-1A6,6,0,0,0,91.91,46.54Z"/><polygon class="b14152cb-fc84-43ba-84b4-9bd73bc1c187" points="116.22 34.97 113.82 32.57 111.47 34.95 113.85 37.35 116.22 34.97"/><path class="b14152cb-fc84-43ba-84b4-9bd73bc1c187" d="M125.8,44.55l-4.89-1.81-2.35-.91-1.67-.6c-.45-.15-.83-.28-1.12-.36s-.53-.16-.71-.2a3.41,3.41,0,0,0-.4-.07h-.22c-2.27,0-3.77,1.36-4.47,4.09l2.52.66a5.47,5.47,0,0,1,.45-1.22,2.07,2.07,0,0,1,.48-.65,1,1,0,0,1,.5-.24,2.91,2.91,0,0,1,.49-.05c.18,0,.53.13,1.06.29s1.16.38,1.9.65,1.55.56,2.44.9,1.78.69,2.67,1c-.64.38-1.39.78-2.25,1.21a29.14,29.14,0,0,1-2.75,1.19,24.52,24.52,0,0,1-3,.91,14,14,0,0,1-3.12.37H106V47.14q0-3.7-1.86-5.45a4.55,4.55,0,0,0-1.54-.91,5.47,5.47,0,0,0-5.68,1.28,6.91,6.91,0,0,0-.56.73,5.3,5.3,0,0,0-.53,1,7.34,7.34,0,0,0-.4,1.32,7.57,7.57,0,0,0-.16,1.65,6.06,6.06,0,0,0,.51,2.62,5,5,0,0,0,1.32,1.73,5.22,5.22,0,0,0,1.8,1,7.1,7.1,0,0,0,2,.29h2.54a6.23,6.23,0,0,1-.34,2.23,3.3,3.3,0,0,1-1,1.48,5.45,5.45,0,0,1-2.25,1,16.54,16.54,0,0,1-3.51.32V60a17.78,17.78,0,0,0,4.38-.46,8,8,0,0,0,3-1.42,5.65,5.65,0,0,0,1.78-2.37,9,9,0,0,0,.57-3.37h5.31a15.8,15.8,0,0,0,3.53-.4,25.62,25.62,0,0,0,3.39-1,27.5,27.5,0,0,0,3-1.29c.93-.47,1.76-.91,2.46-1.32s1.27-.76,1.69-1l.72-.48Zm-22.53,5.21h-2.55l-.35,0-.48-.06a4,4,0,0,1-.53-.16,2.73,2.73,0,0,1-.54-.27,2.7,2.7,0,0,1-1.08-2.47,4.27,4.27,0,0,1,.76-2.72,2.58,2.58,0,0,1,2.13-1l.43,0a2.12,2.12,0,0,1,.55.14,2,2,0,0,1,.58.35,2.18,2.18,0,0,1,.54.69,5.09,5.09,0,0,1,.38,1.16,8.11,8.11,0,0,1,.16,1.7Z"/><path class="b14152cb-fc84-43ba-84b4-9bd73bc1c187" d="M103.48,7.57V5H75.24a39.28,39.28,0,0,0-25.18,8.9c-.33.27-.66.56-1,.85a32.87,32.87,0,0,1-16,7.81l-11,2c-.35.06-.69.13-1,.21a21.17,21.17,0,0,0-15.44,15l-.7,2.45h0c0,.09-.1.31-.2.67s-.22.8-.33,1.29-.22,1-.31,1.57a8.5,8.5,0,0,0-.14,1.52A6,6,0,0,0,4,48.58a5.36,5.36,0,0,0,.36,1.11,4.26,4.26,0,0,0,.51.84,4.14,4.14,0,0,0,.55.61A4.46,4.46,0,0,0,7,52.08a5.36,5.36,0,0,0,1.84.34H26.11a5.14,5.14,0,0,0,2-.39,4.49,4.49,0,0,0,1.61-1.1,4.38,4.38,0,0,0,.49-.6,4,4,0,0,0,.44-.83,4.71,4.71,0,0,0,.29-1,6.38,6.38,0,0,0,.1-1.08v-.28c0-.3-.06-.71-.12-1.22s-.14-1.06-.23-1.64c0-.28-.1-.6-.16-.93s-.14-.7-.23-1.1l-2.52.43c.07.4.13.77.19,1.09s.11.62.15.9.09.53.12.78l.09.71c0,.24.05.45.07.64s0,.34,0,.46v.16a2.44,2.44,0,0,1-.59,1.72,2.28,2.28,0,0,1-.76.5,2.56,2.56,0,0,1-1,.18H8.82a3.33,3.33,0,0,1-.6-.07,2,2,0,0,1-.79-.33,2.23,2.23,0,0,1-.68-.79,2.9,2.9,0,0,1-.3-1.43,6.47,6.47,0,0,1,.11-1.07c.07-.41.15-.82.25-1.23s.19-.78.29-1.14.17-.63.23-.82l.72-2.52A18.56,18.56,0,0,1,21.56,27.27l.91-.19,11-2A35.47,35.47,0,0,0,50.8,16.67c.31-.28.62-.54.93-.8a36.66,36.66,0,0,1,23.51-8.3Z"/><rect class="fc522378-44d7-44e4-a1a7-fef6e11ff3ed" width="130" height="65"/></g></svg>